<svg width="2446" height="1255" viewBox="0 0 2446 1255" fill="none" xmlns="http://www.w3.org/2000/svg">
<rect width="2446" height="1255" fill="#21053F"/>
<rect x="461" y="119" width="1863" height="1024" rx="10" fill="#EEEEEE"/>
<rect x="1998" y="176" width="265" height="265" rx="10" fill="#9FACBF"/>
<rect x="1998" y="176" width="265" height="265" rx="10" fill="#9FACBF"/>
<rect x="1998" y="176" width="265" height="265" rx="10" fill="#26D48E"/>
<rect x="1333" y="176" width="610" height="622" rx="10" fill="#E1E1E1"/>
<rect x="1998" y="498" width="265" height="265" rx="10" fill="#9FACBF"/>
<rect x="1998" y="498" width="265" height="265" rx="10" fill="#9FACBF"/>
<rect x="1998" y="498" width="265" height="265" rx="10" fill="#26D48E"/>
<rect x="1998" y="820" width="265" height="265" rx="10" fill="#9FACBF"/>
<rect x="1998" y="820" width="265" height="265" rx="10" fill="#9FACBF"/>
<rect x="1998" y="820" width="265" height="265" rx="10" fill="#26D48E"/>
<rect x="145" y="135" width="250" height="187" rx="10" fill="#CECECE"/>
<rect x="126" y="119" width="250" height="182" rx="10" fill="#EEEEEE"/>
<rect x="145" y="389" width="250" height="186" rx="10" fill="#CECECE"/>
<rect x="126" y="372" width="250" height="182" rx="10" fill="#EEEEEE"/>
<rect x="145" y="641" width="250" height="187" rx="10" fill="#CECECE"/>
<rect x="126" y="625" width="250" height="182" rx="10" fill="#EEEEEE"/>
<rect x="136" y="893" width="250" height="250" rx="10" fill="#9FACBF"/>
<rect x="136" y="893" width="250" height="250" rx="10" fill="#9FACBF"/>
<rect x="136" y="893" width="250" height="250" rx="10" fill="#EEEEEE"/>
<circle cx="1485" cy="960" r="125" fill="#E1E1E1"/>
<circle cx="1485" cy="960" r="15" fill="#F17373"/>
<path d="M1378 303C1378 297.477 1382.48 293 1388 293H1450C1455.52 293 1460 297.477 1460 303V798H1378V303Z" fill="#80A1F8"/>
<path d="M1534.27 880.109C1535.85 877.84 1538.96 877.275 1541.23 878.849C1543.5 880.422 1544.07 883.537 1542.49 885.807L1491.22 959.768L1483 954.07L1534.27 880.109Z" fill="#F17373"/>
<circle cx="1792" cy="960" r="125" fill="#E1E1E1"/>
<circle cx="1792" cy="960" r="15" fill="#F17373"/>
<path d="M1842.23 1043.94C1843.49 1046.39 1842.53 1049.41 1840.08 1050.68C1837.63 1051.94 1834.61 1050.98 1833.34 1048.53L1792 968.594L1800.88 964L1842.23 1043.94Z" fill="#F17373"/>
<path d="M1518 530C1518 524.477 1522.48 520 1528 520H1590C1595.52 520 1600 524.477 1600 530V798H1518V530Z" fill="#80A1F8"/>
<path d="M1667 405C1667 399.477 1671.48 395 1677 395H1739C1744.52 395 1749 399.477 1749 405V798H1667V405Z" fill="#80A1F8"/>
<path d="M1816 623C1816 617.477 1820.48 613 1826 613H1888C1893.52 613 1898 617.477 1898 623V798H1816V623Z" fill="#80A1F8"/>
<rect x="522" y="176" width="745" height="622" rx="10" fill="#E1E1E1"/>
<rect x="801" y="530" width="187" height="221" fill="#CECECE"/>
<rect x="801" y="608" width="187" height="143" fill="#7FB9FE"/>
<ellipse cx="894.5" cy="531" rx="93.5" ry="11" fill="#CECECE"/>
<rect x="1043" y="214" width="31" height="316" fill="#CECECE"/>
<ellipse cx="1058.5" cy="214" rx="15.5" ry="11" fill="#CECECE"/>
<rect x="1096" y="214" width="31" height="316" fill="#CECECE"/>
<rect x="1122" y="556" width="31" height="96" fill="#CECECE"/>
<ellipse cx="1111.5" cy="214" rx="15.5" ry="11" fill="#CECECE"/>
<rect x="1149" y="214" width="31" height="316" fill="#CECECE"/>
<ellipse cx="1164.5" cy="214" rx="15.5" ry="11" fill="#CECECE"/>
<rect x="1202" y="214" width="31" height="316" fill="#CECECE"/>
<ellipse cx="1217.5" cy="214" rx="15.5" ry="11" fill="#CECECE"/>
<ellipse cx="894.5" cy="751" rx="93.5" ry="11" fill="#7FB9FE"/>
<rect x="557" y="530" width="187" height="221" fill="#CECECE"/>
<rect x="557" y="678" width="187" height="73" fill="#7FB9FE"/>
<ellipse cx="650.5" cy="531" rx="93.5" ry="11" fill="#CECECE"/>
<ellipse cx="650.5" cy="751" rx="93.5" ry="11" fill="#7FB9FE"/>
<path d="M640 321C640 315.477 644.477 311 650 311H651C656.523 311 661 315.477 661 321V509H640V321Z" fill="#CECECE"/>
<path d="M1045 311C1050.52 311 1055 315.477 1055 321V322C1055 327.523 1050.52 332 1045 332H650V311H1045Z" fill="#CECECE"/>
<path d="M884 321C884 315.477 888.477 311 894 311H895C900.523 311 905 315.477 905 321V509H884V321Z" fill="#CECECE"/>
<circle cx="772" cy="322" r="50" fill="#F47C7C"/>
<path d="M787.399 294.071C791.304 290.166 797.636 290.166 801.541 294.071L802.248 294.778C806.153 298.683 806.153 305.015 802.248 308.92L760.921 350.248C757.015 354.153 750.684 354.153 746.778 350.248L746.071 349.541C742.166 345.635 742.166 339.304 746.071 335.398L787.399 294.071Z" fill="#CECECE"/>
<rect x="1043" y="677" width="84" height="84" rx="10" fill="#9FACBF"/>
<rect x="1043" y="677" width="84" height="84" rx="10" fill="#9FACBF"/>
<rect x="1043" y="677" width="84" height="84" rx="10" fill="#26D48E"/>
<rect x="1149" y="677" width="84" height="84" rx="10" fill="#9FACBF"/>
<rect x="1149" y="677" width="84" height="84" rx="10" fill="#9FACBF"/>
<rect x="1149" y="677" width="84" height="84" rx="10" fill="#F47C7C"/>
<path d="M1080.32 746.283V692.376H1089.47V746.283H1080.32ZM1057.94 723.903V714.756H1111.85V723.903H1057.94Z" fill="#E1E1E1"/>
<path d="M1209.76 713.652V722.636H1173.17V713.652H1209.76Z" fill="#E1E1E1"/>
<path d="M1133.73 624.96C1135.93 626.734 1139.07 626.734 1141.27 624.96L1232.1 551.669C1236.5 548.116 1233.99 541 1228.33 541H1046.67C1041.01 541 1038.5 548.116 1042.9 551.669L1133.73 624.96Z" fill="#CECECE"/>
<rect x="1043" y="415" width="31" height="115" fill="#A19AF6"/>
<rect x="1096" y="468" width="31" height="62" fill="#A19AF6"/>
<rect x="1149" y="272" width="31" height="258" fill="#A19AF6"/>
<rect x="1202" y="337" width="31" height="193" fill="#A19AF6"/>
<rect x="911" y="835" width="356" height="111" rx="10" fill="#26D48E"/>
<rect x="943.728" y="883.027" width="41.1081" height="13" rx="6.5" transform="rotate(48.4431 943.728 883.027)" fill="#EEEEEE"/>
<rect x="1007.27" y="867.124" width="70.6026" height="13" rx="6.5" transform="rotate(128.674 1007.27 867.124)" fill="#EEEEEE"/>
<rect x="911" y="975" width="356" height="111" rx="10" fill="#26D48E"/>
<rect x="943.728" y="1023.03" width="41.1081" height="13" rx="6.5" transform="rotate(48.4431 943.728 1023.03)" fill="#EEEEEE"/>
<rect x="1007.27" y="1007.12" width="70.6026" height="13" rx="6.5" transform="rotate(128.674 1007.27 1007.12)" fill="#EEEEEE"/>
<rect x="522" y="835" width="356" height="111" rx="10" fill="#26D48E"/>
<rect x="554.728" y="883.027" width="41.1081" height="13" rx="6.5" transform="rotate(48.4431 554.728 883.027)" fill="#EEEEEE"/>
<rect x="618.269" y="867.124" width="70.6026" height="13" rx="6.5" transform="rotate(128.674 618.269 867.124)" fill="#EEEEEE"/>
<rect x="522" y="974" width="356" height="111" rx="10" fill="#F47C7C"/>
<rect x="607.877" y="1007.1" width="76.5349" height="13" rx="6.5" transform="rotate(134.451 607.877 1007.1)" fill="#EEEEEE"/>
<rect x="554.63" y="998.653" width="74.9043" height="13" rx="6.5" transform="rotate(45.3624 554.63 998.653)" fill="#EEEEEE"/>
<circle cx="261.5" cy="978.5" r="43.5" fill="#CECECE"/>
<rect x="242" y="1006" width="41" height="95" rx="10" fill="#9FACBF"/>
<rect x="242" y="1006" width="41" height="95" rx="10" fill="#9FACBF"/>
<rect x="242" y="1006" width="41" height="95" rx="10" fill="#CECECE"/>
</svg>
