<svg width="1491" height="1188" viewBox="0 0 1491 1188" fill="none" xmlns="http://www.w3.org/2000/svg">
<rect width="1491" height="1188" fill="#21053F"/>
<rect x="656" y="309" width="203" height="51" rx="25.5" fill="white"/>
<rect x="134" y="431" width="215" height="145" rx="5" fill="white"/>
<path d="M1174 548C1174 545.239 1176.24 543 1179 543H1388V645C1388 647.761 1385.76 650 1383 650H1179C1176.24 650 1174 647.761 1174 645V548Z" fill="white"/>
<rect x="804" y="217" width="29" height="51" rx="3" fill="#26D48E"/>
<rect width="11" height="187" rx="3" transform="matrix(-1 0 0 1 764 380)" fill="#26D48E"/>
<rect width="11" height="123" rx="3" transform="matrix(-1 0 0 1 771 800)" fill="#26D48E"/>
<rect width="11" height="168" rx="3" transform="matrix(0 -1 -1 0 1047 340)" fill="#26D48E"/>
<rect width="11" height="168" rx="3" transform="matrix(1 0 0 -1 1041 497)" fill="#26D48E"/>
<rect width="11" height="87" rx="3" transform="matrix(1 0 0 -1 1275 755)" fill="#26D48E"/>
<rect width="11" height="105" rx="3" transform="matrix(0 -1 -1 0 1146 497)" fill="#26D48E"/>
<rect x="475" y="340" width="11" height="161" rx="3" transform="rotate(-90 475 340)" fill="#26D48E"/>
<rect x="216" y="756" width="11" height="442" rx="3" transform="rotate(-90 216 756)" fill="#26D48E"/>
<rect x="875" y="756" width="11" height="410" rx="3" transform="rotate(-90 875 756)" fill="#26D48E"/>
<rect x="480" y="497" width="10" height="168" rx="3" transform="rotate(-180 480 497)" fill="#26D48E"/>
<rect x="226" y="751" width="10" height="148" rx="3" transform="rotate(-180 226 751)" fill="#26D48E"/>
<rect x="380" y="497" width="11" height="100" rx="3" transform="rotate(-90 380 497)" fill="#26D48E"/>
<path d="M78 514.524C78 487.173 100.173 465 127.524 465C128.891 465 130 466.109 130 467.476V571C130 573.761 127.761 576 125 576H83C80.2386 576 78 573.761 78 571V514.524Z" fill="#26D48E"/>
<path d="M85 513.19C85 493.203 101.203 477 121.19 477C122.19 477 123 477.81 123 478.81V519C123 521.761 120.761 524 118 524H87.2381C86.002 524 85 522.998 85 521.762V513.19Z" fill="#240347"/>
<rect x="680" y="341" width="191" height="33" rx="16.5" transform="rotate(-90 680 341)" fill="white"/>
<rect x="1174" y="582" width="225" height="50" transform="rotate(-90 1174 582)" fill="white"/>
<rect x="1255" y="582" width="184" height="50" transform="rotate(-90 1255 582)" fill="white"/>
<rect x="675" y="159.529" width="128.592" height="33" rx="16.5" transform="rotate(-42.8961 675 159.529)" fill="white"/>
<rect x="808.271" y="200.78" width="128.592" height="33" rx="16.5" transform="rotate(-118.456 808.271 200.78)" fill="white"/>
<rect x="825.022" y="184.377" width="67.0894" height="12.1647" rx="6.08237" transform="rotate(133.524 825.022 184.377)" fill="white"/>
<rect x="791.509" y="246.972" width="29.7816" height="12.1647" rx="6.08237" transform="rotate(-133.523 791.509 246.972)" fill="white"/>
<rect x="837" y="238.668" width="29.7816" height="12.1647" rx="6.08237" transform="rotate(-41.3292 837 238.668)" fill="white"/>
<rect x="824.854" y="176.013" width="67.0894" height="12.1647" rx="6.08237" transform="rotate(49.9195 824.854 176.013)" fill="white"/>
<circle cx="696.5" cy="161.5" r="25.5" fill="#D9D9D9"/>
<circle cx="696.5" cy="161.5" r="12.5" fill="white"/>
<circle cx="769.5" cy="102.5" r="25.5" fill="#D9D9D9"/>
<circle cx="1233.5" cy="303.5" r="37.5" fill="#26D48E"/>
<ellipse cx="825.5" cy="633.5" rx="19.5" ry="17.5" fill="white"/>
<circle cx="1271" cy="275" r="25" fill="#26D48E"/>
<circle cx="1233.5" cy="227.5" r="16.5" fill="#26D48E"/>
<circle cx="820.5" cy="183.5" r="25.5" fill="#D9D9D9"/>
<circle cx="769.5" cy="102.5" r="12.5" fill="white"/>
<circle cx="131.5" cy="575.5" r="25.5" fill="#D9D9D9"/>
<circle cx="131.5" cy="575.5" r="12.5" fill="white"/>
<circle cx="311.5" cy="577.5" r="25.5" fill="#D9D9D9"/>
<circle cx="311.5" cy="577.5" r="12.5" fill="white"/>
<circle cx="820.5" cy="183.5" r="12.5" fill="white"/>
<rect x="669" y="322" width="176" height="25" rx="12.5" fill="#D9D9D9"/>
<rect x="1170" y="354" width="57" height="19" rx="9.5" fill="#D9D9D9"/>
<rect x="1251" y="391" width="57" height="19" rx="9.5" fill="#D9D9D9"/>
<rect width="171.586" height="72.8802" transform="matrix(0.988625 0.150404 -0.268385 0.963312 1218.47 516.953)" fill="white"/>
<rect x="1194" y="594" width="56" height="38" rx="5" fill="#D9D9D9"/>
<rect x="724" y="697" width="9" height="57" rx="4.5" fill="#D9D9D9"/>
<rect x="689" y="755" width="9" height="44" rx="4.5" transform="rotate(-90 689 755)" fill="#D9D9D9"/>
<rect x="800" y="755" width="9" height="45" rx="4.5" transform="rotate(-90 800 755)" fill="#D9D9D9"/>
<rect x="762" y="697" width="8" height="74" rx="4" fill="#D9D9D9"/>
<rect x="799" y="697" width="9" height="57" rx="4.5" fill="#D9D9D9"/>
<rect x="1267" y="594" width="100" height="38" rx="5" fill="#D9D9D9"/>
<ellipse cx="689" cy="750.5" rx="11" ry="11.5" fill="#26D48E"/>
<circle cx="766" cy="773" r="11" fill="#26D48E"/>
<circle cx="843.5" cy="750.5" r="11.5" fill="#26D48E"/>
<circle cx="708.5" cy="680.5" r="36.5" fill="white"/>
<ellipse cx="816.5" cy="677" rx="52.5" ry="45" fill="white"/>
<ellipse cx="762.5" cy="653.5" rx="61.5" ry="63.5" fill="white"/>
<rect x="641" y="941" width="250" height="163.991" rx="5" fill="white"/>
<rect x="652.468" y="953.614" width="11.4679" height="69.9541" rx="3" fill="#26D48E"/>
<rect x="671.963" y="981.138" width="11.4679" height="42.4312" rx="3" fill="#26D48E"/>
<rect x="691.459" y="994.898" width="11.4679" height="28.6697" rx="3" fill="#26D48E"/>
<rect x="710.954" y="971.964" width="11.4679" height="51.6055" rx="3" fill="#26D48E"/>
<rect x="745.357" y="1043.06" width="61.9266" height="50.4587" rx="5" fill="#D9D9D9"/>
<rect x="652.468" y="1052.24" width="9.17431" height="69.9541" rx="4.58716" transform="rotate(-90 652.468 1052.24)" fill="#D9D9D9"/>
<rect x="652.468" y="1052.24" width="9.17431" height="20.6422" rx="4.58716" transform="rotate(-90 652.468 1052.24)" fill="#26D48E"/>
<rect x="652.468" y="1066" width="9.17431" height="69.9541" rx="4.58716" transform="rotate(-90 652.468 1066)" fill="#D9D9D9"/>
<rect x="652.468" y="1079.76" width="9.17431" height="69.9541" rx="4.58716" transform="rotate(-90 652.468 1079.76)" fill="#D9D9D9"/>
<rect x="652.468" y="1093.52" width="9.17431" height="69.9541" rx="4.58716" transform="rotate(-90 652.468 1093.52)" fill="#D9D9D9"/>
<rect x="815.312" y="1043.06" width="61.9266" height="50.4587" rx="5" fill="#D9D9D9"/>
<circle cx="774.1" cy="994.972" r="25.6697" stroke="#D9D9D9" stroke-width="6"/>
<mask id="path-72-inside-1_104_4" fill="white">
<path d="M770.624 966.514C766.798 966.982 763.105 968.216 759.767 970.143C756.428 972.07 753.513 974.651 751.195 977.731C748.877 980.81 747.203 984.326 746.275 988.067C745.346 991.808 745.182 995.698 745.791 999.504C746.401 1003.31 747.771 1006.95 749.821 1010.22C751.871 1013.48 754.558 1016.3 757.722 1018.5C760.885 1020.71 764.46 1022.25 768.234 1023.04C772.007 1023.82 775.9 1023.84 779.681 1023.09L778.335 1016.31C775.466 1016.88 772.512 1016.87 769.649 1016.27C766.786 1015.67 764.073 1014.5 761.672 1012.83C759.272 1011.16 757.233 1009.02 755.677 1006.54C754.122 1004.06 753.082 1001.3 752.619 998.411C752.157 995.523 752.282 992.571 752.986 989.733C753.691 986.894 754.961 984.226 756.72 981.889C758.479 979.552 760.691 977.594 763.224 976.132C765.757 974.67 768.559 973.733 771.462 973.378L770.624 966.514Z"/>
</mask>
<path d="M770.624 966.514C766.798 966.982 763.105 968.216 759.767 970.143C756.428 972.07 753.513 974.651 751.195 977.731C748.877 980.81 747.203 984.326 746.275 988.067C745.346 991.808 745.182 995.698 745.791 999.504C746.401 1003.31 747.771 1006.95 749.821 1010.22C751.871 1013.48 754.558 1016.3 757.722 1018.5C760.885 1020.71 764.46 1022.25 768.234 1023.04C772.007 1023.82 775.9 1023.84 779.681 1023.09L778.335 1016.31C775.466 1016.88 772.512 1016.87 769.649 1016.27C766.786 1015.67 764.073 1014.5 761.672 1012.83C759.272 1011.16 757.233 1009.02 755.677 1006.54C754.122 1004.06 753.082 1001.3 752.619 998.411C752.157 995.523 752.282 992.571 752.986 989.733C753.691 986.894 754.961 984.226 756.72 981.889C758.479 979.552 760.691 977.594 763.224 976.132C765.757 974.67 768.559 973.733 771.462 973.378L770.624 966.514Z" stroke="#26D48E" stroke-width="12" mask="url(#path-72-inside-1_104_4)"/>
<circle cx="848.642" cy="994.972" r="25.6697" stroke="#D9D9D9" stroke-width="6"/>
<mask id="path-74-inside-2_104_4" fill="white">
<path d="M876.85 1000.09C878.119 993.107 876.749 985.898 873.007 979.863C869.264 973.828 863.416 969.397 856.593 967.427C849.771 965.458 842.46 966.091 836.077 969.203C829.694 972.315 824.694 977.685 822.043 984.273L828.325 986.8C830.349 981.768 834.169 977.666 839.045 975.289C843.92 972.912 849.504 972.429 854.715 973.933C859.926 975.437 864.394 978.822 867.252 983.432C870.111 988.041 871.157 993.548 870.188 998.884L876.85 1000.09Z"/>
</mask>
<path d="M876.85 1000.09C878.119 993.107 876.749 985.898 873.007 979.863C869.264 973.828 863.416 969.397 856.593 967.427C849.771 965.458 842.46 966.091 836.077 969.203C829.694 972.315 824.694 977.685 822.043 984.273L828.325 986.8C830.349 981.768 834.169 977.666 839.045 975.289C843.92 972.912 849.504 972.429 854.715 973.933C859.926 975.437 864.394 978.822 867.252 983.432C870.111 988.041 871.157 993.548 870.188 998.884L876.85 1000.09Z" stroke="#26D48E" stroke-width="12" mask="url(#path-74-inside-2_104_4)"/>
<rect x="652.468" y="1066" width="9.17431" height="40.1376" rx="4.58716" transform="rotate(-90 652.468 1066)" fill="#26D48E"/>
<rect x="652.468" y="1079.76" width="9.17431" height="29.8165" rx="4.58716" transform="rotate(-90 652.468 1079.76)" fill="#26D48E"/>
<rect x="652.468" y="1093.52" width="9.17431" height="53.8991" rx="4.58716" transform="rotate(-90 652.468 1093.52)" fill="#26D48E"/>
<rect x="862.33" y="1078.61" width="9.17431" height="9.17431" rx="2" fill="#26D48E"/>
<rect x="792.376" y="1078.61" width="9.17431" height="9.17431" rx="2" fill="#26D48E"/>
</svg>
