<svg width="1311" height="1033" viewBox="0 0 1311 1033" fill="none" xmlns="http://www.w3.org/2000/svg">
<rect x="578" y="237" width="203" height="51" rx="25.5" fill="white"/>
<rect x="56" y="359" width="215" height="145" rx="5" fill="white"/>
<path d="M1096 476C1096 473.239 1098.24 471 1101 471H1310V573C1310 575.761 1307.76 578 1305 578H1101C1098.24 578 1096 575.761 1096 573V476Z" fill="white"/>
<rect x="726" y="145" width="29" height="51" rx="3" fill="#26D48E"/>
<rect width="11" height="187" rx="3" transform="matrix(-1 0 0 1 686 308)" fill="#26D48E"/>
<rect width="11" height="123" rx="3" transform="matrix(-1 0 0 1 693 728)" fill="#26D48E"/>
<rect width="11" height="168" rx="3" transform="matrix(0 -1 -1 0 969 268)" fill="#26D48E"/>
<rect width="11" height="168" rx="3" transform="matrix(1 0 0 -1 963 425)" fill="#26D48E"/>
<rect width="11" height="87" rx="3" transform="matrix(1 0 0 -1 1197 683)" fill="#26D48E"/>
<rect width="11" height="105" rx="3" transform="matrix(0 -1 -1 0 1068 425)" fill="#26D48E"/>
<rect x="397" y="268" width="11" height="161" rx="3" transform="rotate(-90 397 268)" fill="#26D48E"/>
<rect x="138" y="684" width="11" height="442" rx="3" transform="rotate(-90 138 684)" fill="#26D48E"/>
<rect x="797" y="684" width="11" height="410" rx="3" transform="rotate(-90 797 684)" fill="#26D48E"/>
<rect x="402" y="425" width="10" height="168" rx="3" transform="rotate(-180 402 425)" fill="#26D48E"/>
<rect x="148" y="679" width="10" height="148" rx="3" transform="rotate(-180 148 679)" fill="#26D48E"/>
<rect x="302" y="425" width="11" height="100" rx="3" transform="rotate(-90 302 425)" fill="#26D48E"/>
<path d="M0 442.524C0 415.173 22.1726 393 49.5238 393V393C50.8914 393 52 394.109 52 395.476V499C52 501.761 49.7614 504 47 504H5C2.23858 504 0 501.761 0 499V442.524Z" fill="#26D48E"/>
<path d="M7 441.19C7 421.203 23.203 405 43.1905 405V405C44.1898 405 45 405.81 45 406.81V447C45 449.761 42.7614 452 40 452H9.23809C8.00203 452 7 450.998 7 449.762V441.19Z" fill="#240347"/>
<rect x="602" y="269" width="191" height="33" rx="16.5" transform="rotate(-90 602 269)" fill="white"/>
<rect x="1096" y="510" width="225" height="50" transform="rotate(-90 1096 510)" fill="white"/>
<rect x="1177" y="510" width="184" height="50" transform="rotate(-90 1177 510)" fill="white"/>
<rect x="597" y="87.5293" width="128.592" height="33" rx="16.5" transform="rotate(-42.8961 597 87.5293)" fill="white"/>
<rect x="730.271" y="128.78" width="128.592" height="33" rx="16.5" transform="rotate(-118.456 730.271 128.78)" fill="white"/>
<rect x="747.022" y="112.377" width="67.0894" height="12.1647" rx="6.08237" transform="rotate(133.524 747.022 112.377)" fill="white"/>
<rect x="713.509" y="174.972" width="29.7816" height="12.1647" rx="6.08237" transform="rotate(-133.523 713.509 174.972)" fill="white"/>
<rect x="759" y="166.668" width="29.7816" height="12.1647" rx="6.08237" transform="rotate(-41.3292 759 166.668)" fill="white"/>
<rect x="746.854" y="104.013" width="67.0894" height="12.1647" rx="6.08237" transform="rotate(49.9195 746.854 104.013)" fill="white"/>
<circle cx="618.5" cy="89.5" r="25.5" fill="#D9D9D9"/>
<circle cx="618.5" cy="89.5" r="12.5" fill="white"/>
<circle cx="691.5" cy="30.5" r="25.5" fill="#D9D9D9"/>
<circle cx="1155.5" cy="231.5" r="37.5" fill="#26D48E"/>
<ellipse cx="747.5" cy="561.5" rx="19.5" ry="17.5" fill="white"/>
<circle cx="1193" cy="203" r="25" fill="#26D48E"/>
<circle cx="1155.5" cy="155.5" r="16.5" fill="#26D48E"/>
<circle cx="742.5" cy="111.5" r="25.5" fill="#D9D9D9"/>
<circle cx="691.5" cy="30.5" r="12.5" fill="white"/>
<circle cx="53.5" cy="503.5" r="25.5" fill="#D9D9D9"/>
<circle cx="53.5" cy="503.5" r="12.5" fill="white"/>
<circle cx="233.5" cy="505.5" r="25.5" fill="#D9D9D9"/>
<circle cx="233.5" cy="505.5" r="12.5" fill="white"/>
<circle cx="742.5" cy="111.5" r="12.5" fill="white"/>
<rect x="591" y="250" width="176" height="25" rx="12.5" fill="#D9D9D9"/>
<rect x="1092" y="282" width="57" height="19" rx="9.5" fill="#D9D9D9"/>
<rect x="1173" y="319" width="57" height="19" rx="9.5" fill="#D9D9D9"/>
<rect width="171.586" height="72.8802" transform="matrix(0.988625 0.150404 -0.268385 0.963312 1140.47 444.953)" fill="white"/>
<rect x="1116" y="522" width="56" height="38" rx="5" fill="#D9D9D9"/>
<rect x="646" y="625" width="9" height="57" rx="4.5" fill="#D9D9D9"/>
<rect x="611" y="683" width="9" height="44" rx="4.5" transform="rotate(-90 611 683)" fill="#D9D9D9"/>
<rect x="722" y="683" width="9" height="45" rx="4.5" transform="rotate(-90 722 683)" fill="#D9D9D9"/>
<rect x="684" y="625" width="8" height="74" rx="4" fill="#D9D9D9"/>
<rect x="721" y="625" width="9" height="57" rx="4.5" fill="#D9D9D9"/>
<rect x="1189" y="522" width="100" height="38" rx="5" fill="#D9D9D9"/>
<ellipse cx="611" cy="678.5" rx="11" ry="11.5" fill="#26D48E"/>
<circle cx="688" cy="701" r="11" fill="#26D48E"/>
<circle cx="765.5" cy="678.5" r="11.5" fill="#26D48E"/>
<circle cx="630.5" cy="608.5" r="36.5" fill="white"/>
<ellipse cx="738.5" cy="605" rx="52.5" ry="45" fill="white"/>
<ellipse cx="684.5" cy="581.5" rx="61.5" ry="63.5" fill="white"/>
<rect x="563" y="869" width="250" height="163.991" rx="5" fill="white"/>
<rect x="574.468" y="881.614" width="11.4679" height="69.9541" rx="3" fill="#26D48E"/>
<rect x="593.963" y="909.138" width="11.4679" height="42.4312" rx="3" fill="#26D48E"/>
<rect x="613.459" y="922.898" width="11.4679" height="28.6697" rx="3" fill="#26D48E"/>
<rect x="632.954" y="899.964" width="11.4679" height="51.6055" rx="3" fill="#26D48E"/>
<rect x="667.357" y="971.064" width="61.9266" height="50.4587" rx="5" fill="#D9D9D9"/>
<rect x="574.468" y="980.239" width="9.17431" height="69.9541" rx="4.58716" transform="rotate(-90 574.468 980.239)" fill="#D9D9D9"/>
<rect x="574.468" y="980.239" width="9.17431" height="20.6422" rx="4.58716" transform="rotate(-90 574.468 980.239)" fill="#26D48E"/>
<rect x="574.468" y="994" width="9.17431" height="69.9541" rx="4.58716" transform="rotate(-90 574.468 994)" fill="#D9D9D9"/>
<rect x="574.468" y="1007.76" width="9.17431" height="69.9541" rx="4.58716" transform="rotate(-90 574.468 1007.76)" fill="#D9D9D9"/>
<rect x="574.468" y="1021.52" width="9.17431" height="69.9541" rx="4.58716" transform="rotate(-90 574.468 1021.52)" fill="#D9D9D9"/>
<rect x="737.312" y="971.064" width="61.9266" height="50.4587" rx="5" fill="#D9D9D9"/>
<circle cx="696.1" cy="922.972" r="25.6697" stroke="#D9D9D9" stroke-width="6"/>
<mask id="path-72-inside-1_9_335" fill="white">
<path d="M692.624 894.514C688.798 894.982 685.105 896.216 681.767 898.143C678.428 900.07 675.513 902.651 673.195 905.731C670.877 908.81 669.203 912.326 668.275 916.067C667.346 919.808 667.182 923.698 667.791 927.504C668.401 931.31 669.771 934.955 671.821 938.219C673.871 941.483 676.558 944.301 679.722 946.503C682.885 948.705 686.46 950.247 690.234 951.035C694.007 951.824 697.9 951.844 701.681 951.094L700.335 944.311C697.466 944.88 694.512 944.865 691.649 944.267C688.786 943.668 686.073 942.498 683.672 940.827C681.272 939.156 679.233 937.019 677.677 934.542C676.122 932.065 675.082 929.299 674.619 926.411C674.157 923.523 674.282 920.571 674.986 917.733C675.691 914.894 676.961 912.226 678.72 909.889C680.479 907.552 682.691 905.594 685.224 904.132C687.757 902.67 690.559 901.733 693.462 901.378L692.624 894.514Z"/>
</mask>
<path d="M692.624 894.514C688.798 894.982 685.105 896.216 681.767 898.143C678.428 900.07 675.513 902.651 673.195 905.731C670.877 908.81 669.203 912.326 668.275 916.067C667.346 919.808 667.182 923.698 667.791 927.504C668.401 931.31 669.771 934.955 671.821 938.219C673.871 941.483 676.558 944.301 679.722 946.503C682.885 948.705 686.46 950.247 690.234 951.035C694.007 951.824 697.9 951.844 701.681 951.094L700.335 944.311C697.466 944.88 694.512 944.865 691.649 944.267C688.786 943.668 686.073 942.498 683.672 940.827C681.272 939.156 679.233 937.019 677.677 934.542C676.122 932.065 675.082 929.299 674.619 926.411C674.157 923.523 674.282 920.571 674.986 917.733C675.691 914.894 676.961 912.226 678.72 909.889C680.479 907.552 682.691 905.594 685.224 904.132C687.757 902.67 690.559 901.733 693.462 901.378L692.624 894.514Z" stroke="#26D48E" stroke-width="12" mask="url(#path-72-inside-1_9_335)"/>
<circle cx="770.642" cy="922.972" r="25.6697" stroke="#D9D9D9" stroke-width="6"/>
<mask id="path-74-inside-2_9_335" fill="white">
<path d="M798.85 928.094C800.119 921.107 798.749 913.898 795.007 907.863C791.264 901.828 785.416 897.397 778.593 895.428C771.771 893.458 764.46 894.091 758.077 897.203C751.694 900.315 746.694 905.685 744.043 912.273L750.325 914.8C752.349 909.768 756.169 905.666 761.045 903.289C765.92 900.912 771.504 900.429 776.715 901.933C781.926 903.437 786.394 906.822 789.252 911.432C792.111 916.041 793.157 921.548 792.188 926.884L798.85 928.094Z"/>
</mask>
<path d="M798.85 928.094C800.119 921.107 798.749 913.898 795.007 907.863C791.264 901.828 785.416 897.397 778.593 895.428C771.771 893.458 764.46 894.091 758.077 897.203C751.694 900.315 746.694 905.685 744.043 912.273L750.325 914.8C752.349 909.768 756.169 905.666 761.045 903.289C765.92 900.912 771.504 900.429 776.715 901.933C781.926 903.437 786.394 906.822 789.252 911.432C792.111 916.041 793.157 921.548 792.188 926.884L798.85 928.094Z" stroke="#26D48E" stroke-width="12" mask="url(#path-74-inside-2_9_335)"/>
<rect x="574.468" y="994" width="9.17431" height="40.1376" rx="4.58716" transform="rotate(-90 574.468 994)" fill="#26D48E"/>
<rect x="574.468" y="1007.76" width="9.17431" height="29.8165" rx="4.58716" transform="rotate(-90 574.468 1007.76)" fill="#26D48E"/>
<rect x="574.468" y="1021.52" width="9.17431" height="53.8991" rx="4.58716" transform="rotate(-90 574.468 1021.52)" fill="#26D48E"/>
<rect x="784.33" y="1006.61" width="9.17431" height="9.17431" rx="2" fill="#26D48E"/>
<rect x="714.376" y="1006.61" width="9.17431" height="9.17431" rx="2" fill="#26D48E"/>
</svg>
